<svg width="113" height="51" viewBox="0 0 113 51" fill="none" xmlns="http://www.w3.org/2000/svg">
<path d="M0.563219 10.442C0.563219 8.57 0.950219 6.905 1.72422 5.447C2.51622 3.971 3.63222 2.828 5.07222 2.018C6.51222 1.19 8.16822 0.776 10.0402 0.776C12.4162 0.776 14.4142 1.415 16.0342 2.693C17.6542 3.953 18.6982 5.672 19.1662 7.85H13.4692C13.1272 7.13 12.6502 6.581 12.0382 6.203C11.4442 5.825 10.7512 5.636 9.95922 5.636C8.73522 5.636 7.75422 6.077 7.01622 6.959C6.29622 7.823 5.93622 8.984 5.93622 10.442C5.93622 11.918 6.29622 13.097 7.01622 13.979C7.75422 14.843 8.73522 15.275 9.95922 15.275C10.7512 15.275 11.4442 15.086 12.0382 14.708C12.6502 14.33 13.1272 13.781 13.4692 13.061H19.1662C18.6982 15.239 17.6542 16.967 16.0342 18.245C14.4142 19.505 12.4162 20.135 10.0402 20.135C8.16822 20.135 6.51222 19.73 5.07222 18.92C3.63222 18.092 2.51622 16.949 1.72422 15.491C0.950219 14.015 0.563219 12.332 0.563219 10.442ZM20.8082 12.413C20.8082 10.847 21.0872 9.479 21.6452 8.309C22.2212 7.139 22.9952 6.239 23.9672 5.609C24.9572 4.979 26.0552 4.664 27.2612 4.664C28.3052 4.664 29.2052 4.871 29.9612 5.285C30.7172 5.699 31.3022 6.257 31.7162 6.959V4.853H37.0082V20H31.7162V17.894C31.3022 18.596 30.7082 19.154 29.9342 19.568C29.1782 19.982 28.2872 20.189 27.2612 20.189C26.0552 20.189 24.9572 19.874 23.9672 19.244C22.9952 18.614 22.2212 17.714 21.6452 16.544C21.0872 15.356 20.8082 13.979 20.8082 12.413ZM31.7162 12.413C31.7162 11.441 31.4462 10.676 30.9062 10.118C30.3842 9.56 29.7362 9.281 28.9622 9.281C28.1702 9.281 27.5132 9.56 26.9912 10.118C26.4692 10.658 26.2082 11.423 26.2082 12.413C26.2082 13.385 26.4692 14.159 26.9912 14.735C27.5132 15.293 28.1702 15.572 28.9622 15.572C29.7362 15.572 30.3842 15.293 30.9062 14.735C31.4462 14.177 31.7162 13.403 31.7162 12.413ZM45.3157 7.526C45.9097 6.662 46.6297 5.978 47.4757 5.474C48.3217 4.97 49.2307 4.718 50.2027 4.718V10.361H48.7177C47.5657 10.361 46.7107 10.586 46.1527 11.036C45.5947 11.486 45.3157 12.269 45.3157 13.385V20H40.0237V4.853H45.3157V7.526ZM57.3919 0.0199997V20H52.0999V0.0199997H57.3919ZM67.4526 20.189C65.9406 20.189 64.5816 19.874 63.3756 19.244C62.1876 18.614 61.2516 17.714 60.5676 16.544C59.8836 15.374 59.5416 13.997 59.5416 12.413C59.5416 10.847 59.8836 9.479 60.5676 8.309C61.2696 7.139 62.2146 6.239 63.4026 5.609C64.6086 4.979 65.9676 4.664 67.4796 4.664C68.9916 4.664 70.3416 4.979 71.5296 5.609C72.7356 6.239 73.6806 7.139 74.3646 8.309C75.0666 9.479 75.4176 10.847 75.4176 12.413C75.4176 13.979 75.0666 15.356 74.3646 16.544C73.6806 17.714 72.7356 18.614 71.5296 19.244C70.3236 19.874 68.9646 20.189 67.4526 20.189ZM67.4526 15.599C68.1906 15.599 68.8026 15.329 69.2886 14.789C69.7926 14.231 70.0446 13.439 70.0446 12.413C70.0446 11.387 69.7926 10.604 69.2886 10.064C68.8026 9.524 68.1996 9.254 67.4796 9.254C66.7596 9.254 66.1566 9.524 65.6706 10.064C65.1846 10.604 64.9416 11.387 64.9416 12.413C64.9416 13.457 65.1756 14.249 65.6436 14.789C66.1116 15.329 66.7146 15.599 67.4526 15.599ZM84.0236 20.189C82.6556 20.189 81.4316 19.964 80.3516 19.514C79.2896 19.046 78.4436 18.416 77.8136 17.624C77.2016 16.814 76.8596 15.905 76.7876 14.897H81.9176C81.9896 15.383 82.2146 15.761 82.5926 16.031C82.9706 16.301 83.4386 16.436 83.9966 16.436C84.4286 16.436 84.7706 16.346 85.0226 16.166C85.2746 15.986 85.4006 15.752 85.4006 15.464C85.4006 15.086 85.1936 14.807 84.7796 14.627C84.3656 14.447 83.6816 14.249 82.7276 14.033C81.6476 13.817 80.7476 13.574 80.0276 13.304C79.3076 13.034 78.6776 12.593 78.1376 11.981C77.6156 11.369 77.3546 10.541 77.3546 9.497C77.3546 8.597 77.5976 7.787 78.0836 7.067C78.5696 6.329 79.2806 5.744 80.2166 5.312C81.1706 4.88 82.3136 4.664 83.6456 4.664C85.6256 4.664 87.1826 5.15 88.3166 6.122C89.4506 7.094 90.1076 8.372 90.2876 9.956H85.5086C85.4186 9.47 85.2026 9.101 84.8606 8.849C84.5366 8.579 84.0956 8.444 83.5376 8.444C83.1056 8.444 82.7726 8.525 82.5386 8.687C82.3226 8.849 82.2146 9.074 82.2146 9.362C82.2146 9.722 82.4216 10.001 82.8356 10.199C83.2496 10.379 83.9156 10.568 84.8336 10.766C85.9316 11 86.8406 11.261 87.5606 11.549C88.2986 11.837 88.9376 12.305 89.4776 12.953C90.0356 13.583 90.3146 14.447 90.3146 15.545C90.3146 16.427 90.0536 17.219 89.5316 17.921C89.0276 18.623 88.2986 19.181 87.3446 19.595C86.4086 19.991 85.3016 20.189 84.0236 20.189ZM103.376 0.964999V20H98.0843V0.964999H103.376ZM108.955 20.216C108.019 20.216 107.263 19.964 106.687 19.46C106.129 18.938 105.85 18.281 105.85 17.489C105.85 16.697 106.129 16.04 106.687 15.518C107.263 14.996 108.019 14.735 108.955 14.735C109.873 14.735 110.611 14.996 111.169 15.518C111.745 16.04 112.033 16.697 112.033 17.489C112.033 18.263 111.745 18.911 111.169 19.433C110.611 19.955 109.873 20.216 108.955 20.216ZM10.8502 50L7.07022 42.98H6.50322V50H1.21122V30.965H9.55422C11.0842 30.965 12.3802 31.235 13.4422 31.775C14.5042 32.297 15.3052 33.026 15.8452 33.962C16.3852 34.88 16.6552 35.915 16.6552 37.067C16.6552 38.363 16.2952 39.506 15.5752 40.496C14.8732 41.468 13.8382 42.161 12.4702 42.575L16.7632 50H10.8502ZM6.50322 39.362H9.12222C9.84222 39.362 10.3822 39.191 10.7422 38.849C11.1022 38.507 11.2822 38.012 11.2822 37.364C11.2822 36.752 11.0932 36.275 10.7152 35.933C10.3552 35.573 9.82422 35.393 9.12222 35.393H6.50322V39.362ZM21.7348 33.449C20.7988 33.449 20.0428 33.197 19.4668 32.693C18.9088 32.171 18.6298 31.523 18.6298 30.749C18.6298 29.957 18.9088 29.3 19.4668 28.778C20.0428 28.256 20.7988 27.995 21.7348 27.995C22.6528 27.995 23.3908 28.256 23.9488 28.778C24.5248 29.3 24.8128 29.957 24.8128 30.749C24.8128 31.523 24.5248 32.171 23.9488 32.693C23.3908 33.197 22.6528 33.449 21.7348 33.449ZM24.3538 34.853V50H19.0618V34.853H24.3538ZM34.4145 50.189C32.9025 50.189 31.5435 49.874 30.3375 49.244C29.1495 48.614 28.2135 47.714 27.5295 46.544C26.8455 45.374 26.5035 43.997 26.5035 42.413C26.5035 40.847 26.8455 39.479 27.5295 38.309C28.2315 37.139 29.1765 36.239 30.3645 35.609C31.5705 34.979 32.9295 34.664 34.4415 34.664C35.9535 34.664 37.3035 34.979 38.4915 35.609C39.6975 36.239 40.6425 37.139 41.3265 38.309C42.0285 39.479 42.3795 40.847 42.3795 42.413C42.3795 43.979 42.0285 45.356 41.3265 46.544C40.6425 47.714 39.6975 48.614 38.4915 49.244C37.2855 49.874 35.9265 50.189 34.4145 50.189ZM34.4145 45.599C35.1525 45.599 35.7645 45.329 36.2505 44.789C36.7545 44.231 37.0065 43.439 37.0065 42.413C37.0065 41.387 36.7545 40.604 36.2505 40.064C35.7645 39.524 35.1615 39.254 34.4415 39.254C33.7215 39.254 33.1185 39.524 32.6325 40.064C32.1465 40.604 31.9035 41.387 31.9035 42.413C31.9035 43.457 32.1375 44.249 32.6055 44.789C33.0735 45.329 33.6765 45.599 34.4145 45.599ZM50.9855 50.189C49.6175 50.189 48.3935 49.964 47.3135 49.514C46.2515 49.046 45.4055 48.416 44.7755 47.624C44.1635 46.814 43.8215 45.905 43.7495 44.897H48.8795C48.9515 45.383 49.1765 45.761 49.5545 46.031C49.9325 46.301 50.4005 46.436 50.9585 46.436C51.3905 46.436 51.7325 46.346 51.9845 46.166C52.2365 45.986 52.3625 45.752 52.3625 45.464C52.3625 45.086 52.1555 44.807 51.7415 44.627C51.3275 44.447 50.6435 44.249 49.6895 44.033C48.6095 43.817 47.7095 43.574 46.9895 43.304C46.2695 43.034 45.6395 42.593 45.0995 41.981C44.5775 41.369 44.3165 40.541 44.3165 39.497C44.3165 38.597 44.5595 37.787 45.0455 37.067C45.5315 36.329 46.2425 35.744 47.1785 35.312C48.1325 34.88 49.2755 34.664 50.6075 34.664C52.5875 34.664 54.1445 35.15 55.2785 36.122C56.4125 37.094 57.0695 38.372 57.2495 39.956H52.4705C52.3805 39.47 52.1645 39.101 51.8225 38.849C51.4985 38.579 51.0575 38.444 50.4995 38.444C50.0675 38.444 49.7345 38.525 49.5005 38.687C49.2845 38.849 49.1765 39.074 49.1765 39.362C49.1765 39.722 49.3835 40.001 49.7975 40.199C50.2115 40.379 50.8775 40.568 51.7955 40.766C52.8935 41 53.8025 41.261 54.5225 41.549C55.2605 41.837 55.8995 42.305 56.4395 42.953C56.9975 43.583 57.2765 44.447 57.2765 45.545C57.2765 46.427 57.0155 47.219 56.4935 47.921C55.9895 48.623 55.2605 49.181 54.3065 49.595C53.3705 49.991 52.2635 50.189 50.9855 50.189Z" fill="white"/>
</svg>
